<svg xmlns="http://www.w3.org/2000/svg" viewBox="0 0 1000 1000"><defs><style>.cls-1{fill:#fff;}.cls-2{fill:#d9e6ff;}.cls-3{fill:#122042;}</style></defs><g id="Layer_2" data-name="Layer 2"><g id="pfcc"><g id="background"><rect class="cls-1" width="1000" height="1000"/></g><path class="cls-2" d="M735.61,672.06c-33.55,0-56.13-7.31-63.52-10.09l.4-190.47h84.62l49.78,190.39a265.52,265.52,0,0,1-71.27,10.17Z"/><path d="M753.64,476l47.77,182.71a259.27,259.27,0,0,1-65.8,8.85c-29.23,0-49.88-5.66-59-8.76L677,476h76.66m7-9H668l-.41,198s25.13,11.56,68,11.56c21.45,0,47.33-2.89,76.75-11.56L760.59,467Z"/><path class="cls-2" d="M282.39,672.06a265.53,265.53,0,0,1-71.28-10.17L260.89,471.5h84.62L345.9,662C338.53,664.75,316,672.06,282.39,672.06Z"/><path d="M341,476l.38,182.8c-9.14,3.11-29.79,8.76-59,8.76a259.27,259.27,0,0,1-65.8-8.85L264.36,476H341m9-9H257.41L205.64,665c29.42,8.67,55.3,11.56,76.75,11.56,42.89,0,68-11.56,68-11.56L350,467Z"/><path class="cls-2" d="M513.33,717.39a271.29,271.29,0,0,1-77.73-11.63L455.13,475.5H563.59L585.2,706C576.68,709.14,550.5,717.39,513.33,717.39Z"/><path d="M559.49,480l20.9,222.94c-10.58,3.5-34.49,9.95-67.06,9.95a265.72,265.72,0,0,1-72.93-10.42L459.27,480H559.49m8.19-9H451L430.81,709a276.1,276.1,0,0,0,82.52,12.89C560.49,721.89,590,709,590,709L567.68,471Z"/><rect class="cls-3" x="180" y="243" width="638" height="230"/><path d="M812,249V467H186V249H812m12-12H174V479H824V237Z"/><rect class="cls-1" x="228" y="271" width="169" height="27"/><rect class="cls-1" x="426" y="331" width="169" height="27"/><rect class="cls-1" x="571" y="401" width="169" height="27"/></g></g></svg>